<svg xmlns="http://www.w3.org/2000/svg" viewBox="0 0 1024 1024">
  <defs>
    <radialGradient id="bg" cx="50%" cy="42%" r="70%"><stop offset="0" stop-color="#101b44"/><stop offset="1" stop-color="#02040d"/></radialGradient>
    <radialGradient id="orb" cx="34%" cy="24%" r="80%"><stop offset="0" stop-color="#e8fbff"/><stop offset=".24" stop-color="#54d7ff"/><stop offset=".62" stop-color="#4531b8"/><stop offset="1" stop-color="#15103d"/></radialGradient>
    <linearGradient id="ring" x1="0" x2="1"><stop stop-color="#32d8ff"/><stop offset="1" stop-color="#cf56ff"/></linearGradient>
    <filter id="glow"><feGaussianBlur stdDeviation="14" result="b"/><feMerge><feMergeNode in="b"/><feMergeNode in="SourceGraphic"/></feMerge></filter>
  </defs>
  <rect width="1024" height="1024" rx="220" fill="url(#bg)"/>
  <circle cx="512" cy="512" r="334" fill="none" stroke="url(#ring)" stroke-width="13" opacity=".75"/>
  <path d="M132 538 Q512 292 892 480" fill="none" stroke="#42dcff" stroke-width="20" stroke-dasharray="34 26" stroke-linecap="round" filter="url(#glow)"/>
  <path d="M132 538 Q512 750 892 590" fill="none" stroke="#d35eff" stroke-width="20" stroke-dasharray="34 26" stroke-linecap="round" filter="url(#glow)"/>
  <circle cx="132" cy="538" r="32" fill="#70eaff" filter="url(#glow)"/>
  <circle cx="892" cy="480" r="27" fill="#f06cff" filter="url(#glow)"/>
  <circle cx="512" cy="512" r="224" fill="url(#orb)" opacity=".96" filter="url(#glow)"/>
  <path d="M748 228 l38 48 -18 54 58 -7 38 42 -48 35 14 58 -61 -7 -31 50 -36 -49 -59 10 10 -60 -49 -32 41 -43 -20 -55 59 -12 20 -57z" fill="none" stroke="#ad6dff" stroke-width="8" opacity=".82"/>
</svg>
